<?xml version="1.0" encoding="UTF-8"?>
<svg id="Ebene_2" data-name="Ebene 2" xmlns="http://www.w3.org/2000/svg" viewBox="0 0 1024 1024">
  <defs>
    <style>
      .cls-1 {
        fill: #1d1d1b;
      }
    </style>
  </defs>
  <path class="cls-1" d="M830.33,377.94c-8.72,19.17-24.42,33.59-36.69,49.36-18.19,23.88-33.57,50.66-39.38,80.22-6.44,28.11-.33,57.17,5.83,84.84,5.47,27.15,5.75,55.37,1.19,82.65-10.67,55.43-51.4,100.93-93.38,136.41-54.78,50.33-137.84,48.43-196.37,3.77-32.31-25.16-61.11-61.91-106.26-58.58-34.2,2.19-66.04,22.14-100.91,22.14-60.55,2.47-103.6-47.82-69.31-104.68,39.47-64.19,108.52-37.37,123.18-73.95,6.16-18.09-8.83-45.61-16.57-64.89-39.01-87.33-112.75-276.42,6.81-298.25,127.21-11.13,85.55,118,114.42,201.53,4.16,10.78,15.55,28.41,28.32,20.95,9.76-7.09,8.67-25.39,8.67-37.04-2.21-90.8-9.33-212.87,86.96-244.8,9.37-2.56,19.04-3.21,28.17-1.82,39.43,5.62,65.36,45.22,62.98,83.82.2,60.33-54.04,116.48-37.26,176.31,5.96,18.69,27.3,26.41,41.79,10.69,13.12-13.6,19.08-37.34,26.18-54.8,9.93-25.24,24.31-48.04,40.38-69.83,24.77-34.61,61.26-56.1,102.21-39.19l.37.15c37.08,15.9,34.05,64.15,18.67,94.99Z"/>
</svg>